<svg xmlns="http://www.w3.org/2000/svg" xmlns:xlink="http://www.w3.org/1999/xlink" version="1.1" id="rockVectorHolder" x="0px" y="0px" viewBox="0 0 595.3 584" enable-background="new 0 0 595.3 584" xml:space="preserve">
    <defs>
        <style type="text/css">
        #rockVector {
            fill: #37adbf;
            cursor: pointer;
            -webkit-transition: .3s;
            -moz-transition: .3s;
            transition: .3s;
            stroke-width: 4;
            stroke: #fff;
        }
        #rockVector:hover, #rockVector:focus {
            fill: #fff;
            stroke-width: 4;
            stroke: #37adbf; 
        }
        </style>
    </defs>
    <path id="rockVector" class="defaultVector" d="M551.9 218c1.4-4.4-0.5-10.3-4.3-13.1l-32-23.2c-3.8-2.7-7.5-8.8-8.2-13.4L491.9 70c-0.7-4.6-5.1-9-9.7-9.7 L268.7 26.4c-4.6-0.7-10.1 2.1-12.3 6.2l-28.9 56.8c-2.1 4.2-7 9.8-10.7 12.6L75.1 204.9c-3.8 2.7-5.7 8.6-4.3 13.1l13.3 41 c1.4 4.4-0.1 10.8-3.4 14.1l-46.9 46.9c-3.3 3.3-4.3 9.4-2.2 13.6l82.9 162.7c2.1 4.2 7.6 7 12.3 6.2l34.9-5.5 c4.6-0.7 12.2-1.3 16.9-1.3h19.7c4.7 0 10.2 3.4 12.4 7.6l27.9 54.7c2.1 4.2 7.6 7 12.3 6.2l180.3-28.6c4.6-0.7 9-5.1 9.7-9.7 l1.9-12.2c0.7-4.6 5.1-9 9.7-9.7l62.3-9.9c4.6-0.7 9-5.1 9.7-9.7l28.6-180.3c0.7-4.6-2.1-10.1-6.2-12.3l-8.8-4.5 c-4.2-2.1-6.4-7.5-4.9-11.9L551.9 218z"/>
</svg>
