<svg xmlns="http://www.w3.org/2000/svg" xmlns:xlink="http://www.w3.org/1999/xlink" version="1.1" id="scissorsVectorHolder" x="0px" y="0px" viewBox="0 0 595.3 584" enable-background="new 0 0 595.3 584" xml:space="preserve">
    <defs>
        <style type="text/css">
        #scissorsVector {
            fill: #37adbf;
            cursor: pointer;
            -webkit-transition: .3s;
            -moz-transition: .3s;
            transition: .3s;
            stroke-width: 4;
            stroke: #fff;
        }
        #scissorsVector:hover, #scissorsVector:focus {
            fill: #fff;
            stroke-width: 4;
            stroke: #37adbf; 
        }
        </style>
    </defs>
    <path id="scissorsVector" class="defaultVector" d="M264.4 285c4.1-23.3 8.3-46.5 12.4-69.7c7.3-41.2 14.2-82.4 22.2-123.5c5.2-26.7 18.2-48.7 44.1-60.9 c3.5-1.7 7.1-3.3 12.6-3c-13.2 82.5-26.3 164.8-39.9 249.6c83.6-13.1 165.3-26 248.4-39c-4.5 21.5-17.1 34.7-33.5 44.9 c-10.9 6.8-23.2 10.4-35.8 12.6c-58.5 10.3-117 20.5-175.5 30.8c-3.6 0.6-7.1 1.5-10.3 2.1c-0.8 1.2-1.5 1.9-1.7 2.7 c-5.7 32-15.4 63-24.7 94c-0.7 2.3-1.1 4.7-1.4 7.1c-1.7 11.5 1.2 14.5 12.9 15.1c21.5 1 37.5 10.8 46.5 30.8 c10.1 22.6 2.7 52.4-17.1 70.6c-19.2 17.6-44.2 20.9-66.3 8.8c-24.1-13.3-34.5-47.1-22.9-74.1c9.2-21.4 19.9-42.2 26.5-64.7 c8.5-28.9 7.8-58 1.9-88.2c-20.8-4-41.7-6.2-62.9-4c-24.5 2.5-47 11.3-69.2 21.4c-11 5-21.8 10.7-33.7 13.6 c-28.8 6.8-56.6-7.4-67.7-34.1c-9.8-23.7 1.2-53.5 25-68.5c19.9-12.6 40.7-15.7 62.1-4.8c17.7 9 26.1 24.6 26.8 44.3 c0.4 12 4 15.6 15.7 13.2c10.3-2.2 20.4-5.6 30.6-8.5c12.3-3.4 24.5-7 36.8-10.1C238.7 290.3 251.2 287.9 264.4 285z M56 281 c-15.2 15.1-15.8 37.8-1.3 52.1c16.1 16 45.5 15.9 61.9-0.2c15.5-15.2 15.2-37.5-0.7-53.4C99 262.5 74 263.1 56 281z M312.6 534.6 c17.2-17.2 17.7-43 1.2-59.5c-15.7-15.7-38.4-16-53.5-0.7c-16.1 16.3-16.4 46-0.6 62C274 551 297 550.2 312.6 534.6z"/>
</svg>
