<?xml version="1.0" encoding="utf-8"?>
<!-- Generator: Adobe Illustrator 18.0.0, SVG Export Plug-In . SVG Version: 6.00 Build 0)  -->
<!DOCTYPE svg PUBLIC "-//W3C//DTD SVG 1.1//EN" "http://www.w3.org/Graphics/SVG/1.1/DTD/svg11.dtd">
<svg version="1.1" id="Layer_1" xmlns="http://www.w3.org/2000/svg" xmlns:xlink="http://www.w3.org/1999/xlink" x="0px" y="0px"
	 viewBox="0 0 256 256" enable-background="new 0 0 256 256" xml:space="preserve">
<path fill="#333333" d="M128-128C34.1-128-42-51.9-42,42s170,342,170,342S298,136,298,42S221.9-128,128-128z M128,166.6
	c-69,0-125-56-125-125s56-125,125-125s125,56,125,125S197,166.6,128,166.6z"/>
<path fill="#333333" d="M42.9,45.9c0-10.5,7.1-17.9,17-17.9s16.7,7.4,16.7,17.9c0,10.2-6.5,17.9-17,17.9
	C49.7,63.8,42.9,56.1,42.9,45.9z"/>
<path fill="#333333" d="M111.1,45.9c0-10.5,7.1-17.9,17-17.9c9.9,0,16.7,7.4,16.7,17.9c0,10.2-6.5,17.9-17,17.9
	C117.9,63.8,111.1,56.1,111.1,45.9z"/>
<path fill="#333333" d="M179.3,45.9c0-10.5,7.1-17.9,17-17.9c9.9,0,16.7,7.4,16.7,17.9c0,10.2-6.5,17.9-17,17.9
	C186.1,63.8,179.3,56.1,179.3,45.9z"/>
</svg>
